{
	"asset":{
		"generator":"Khronos glTF Blender I/O v5.1.18",
		"version":"2.0"
	},
	"scene":0,
	"scenes":[
		{
			"name":"Scene",
			"nodes":[
				0,
				1,
				2
			]
		}
	],
	"nodes":[
		{
			"mesh":0,
			"name":"Cube.429",
			"translation":[
				0.2499999701976776,
				0,
				0
			]
		},
		{
			"mesh":1,
			"name":"Cube.001",
			"translation":[
				0.2499999701976776,
				0,
				0
			]
		},
		{
			"mesh":2,
			"name":"Plane",
			"rotation":[
				0.5,
				0.5,
				-0.5,
				0.5
			],
			"translation":[
				0.2499999701976776,
				0,
				0
			]
		}
	],
	"materials":[
		{
			"name":"Material_0.002",
			"pbrMetallicRoughness":{
				"baseColorFactor":[
					0.800000011920929,
					0.800000011920929,
					0.800000011920929,
					1
				],
				"metallicFactor":0,
				"roughnessFactor":0.5
			}
		},
		{
			"name":"Material_0.001",
			"pbrMetallicRoughness":{
				"baseColorFactor":[
					0.800000011920929,
					0.800000011920929,
					0.800000011920929,
					1
				],
				"metallicFactor":0,
				"roughnessFactor":0.5
			}
		}
	],
	"meshes":[
		{
			"name":"Mesh_0",
			"primitives":[
				{
					"attributes":{
						"POSITION":0,
						"NORMAL":1,
						"TEXCOORD_0":2
					},
					"indices":3,
					"material":0
				}
			]
		},
		{
			"name":"Mesh_0.001",
			"primitives":[
				{
					"attributes":{
						"POSITION":4,
						"NORMAL":5,
						"TEXCOORD_0":6
					},
					"indices":7,
					"material":1
				}
			]
		},
		{
			"name":"Plane",
			"primitives":[
				{
					"attributes":{
						"POSITION":8,
						"NORMAL":9,
						"TEXCOORD_0":10
					},
					"indices":11
				}
			]
		}
	],
	"accessors":[
		{
			"bufferView":0,
			"componentType":5126,
			"count":11,
			"max":[
				2.9802322387695312e-08,
				0.75,
				0.25
			],
			"min":[
				-0.4999999701976776,
				0.25,
				-0.25
			],
			"type":"VEC3"
		},
		{
			"bufferView":1,
			"componentType":5126,
			"count":11,
			"type":"VEC3"
		},
		{
			"bufferView":2,
			"componentType":5126,
			"count":11,
			"type":"VEC2"
		},
		{
			"bufferView":3,
			"componentType":5123,
			"count":24,
			"type":"SCALAR"
		},
		{
			"bufferView":4,
			"componentType":5126,
			"count":26,
			"max":[
				2.9802322387695312e-08,
				0.75,
				0.75
			],
			"min":[
				-0.4999999701976776,
				0.25,
				0.25
			],
			"type":"VEC3"
		},
		{
			"bufferView":5,
			"componentType":5126,
			"count":26,
			"type":"VEC3"
		},
		{
			"bufferView":6,
			"componentType":5126,
			"count":26,
			"type":"VEC2"
		},
		{
			"bufferView":7,
			"componentType":5123,
			"count":72,
			"type":"SCALAR"
		},
		{
			"bufferView":8,
			"componentType":5126,
			"count":4,
			"max":[
				0.25,
				1.0431797647925123e-08,
				0.25
			],
			"min":[
				-0.25,
				-1.0431797647925123e-08,
				-0.25
			],
			"type":"VEC3"
		},
		{
			"bufferView":9,
			"componentType":5126,
			"count":4,
			"type":"VEC3"
		},
		{
			"bufferView":10,
			"componentType":5126,
			"count":4,
			"type":"VEC2"
		},
		{
			"bufferView":11,
			"componentType":5123,
			"count":6,
			"type":"SCALAR"
		}
	],
	"bufferViews":[
		{
			"buffer":0,
			"byteLength":132,
			"byteOffset":0,
			"target":34962
		},
		{
			"buffer":0,
			"byteLength":132,
			"byteOffset":132,
			"target":34962
		},
		{
			"buffer":0,
			"byteLength":88,
			"byteOffset":264,
			"target":34962
		},
		{
			"buffer":0,
			"byteLength":48,
			"byteOffset":352,
			"target":34963
		},
		{
			"buffer":0,
			"byteLength":312,
			"byteOffset":400,
			"target":34962
		},
		{
			"buffer":0,
			"byteLength":312,
			"byteOffset":712,
			"target":34962
		},
		{
			"buffer":0,
			"byteLength":208,
			"byteOffset":1024,
			"target":34962
		},
		{
			"buffer":0,
			"byteLength":144,
			"byteOffset":1232,
			"target":34963
		},
		{
			"buffer":0,
			"byteLength":48,
			"byteOffset":1376,
			"target":34962
		},
		{
			"buffer":0,
			"byteLength":48,
			"byteOffset":1424,
			"target":34962
		},
		{
			"buffer":0,
			"byteLength":32,
			"byteOffset":1472,
			"target":34962
		},
		{
			"buffer":0,
			"byteLength":12,
			"byteOffset":1504,
			"target":34963
		}
	],
	"buffers":[
		{
			"byteLength":1516,
			"uri":"cap.bin"
		}
	]
}
